# xmcd
# 
# Track frame offsets:
#     150
#     19695
#     42095
#     66587
#     89745
#     111767
#     136647
#     153720
#     173212
#     199090
#     217842
#     236517
#     254452
# 
# Disc length: 3745
# 
# Revision: 15
# Processed by: cddbd v1.5.2PL0 Copyright (c) Steve Scherf et al.
# Submitted via: fre:ac v1.1beta1pre2
# 
DISCID=b40e9f0d
DTITLE=L'Arc～en～Ciel - Clicked Singles Best 13
DYEAR=2001
DGENRE=J-Rock
TTITLE0=Blurry Eyes
TTITLE1=flower
TTITLE2=Lies and Truth
TTITLE3=niji
TTITLE4=winter fall
TTITLE5=DIVE TO BLUE
TTITLE6=HONEY
TTITLE7=HEAVEN'S DRIVE
TTITLE8=Pieces
TTITLE9=Driver's High
TTITLE10=NEO UNIVERSE
TTITLE11=STAY AWAY
TTITLE12=Anemone
EXTD=YEAR: 2001
EXTT0=
EXTT1=
EXTT2=
EXTT3=
EXTT4=
EXTT5=
EXTT6=
EXTT7=
EXTT8=
EXTT9=
EXTT10=
EXTT11=
EXTT12=
PLAYORDER=
